<svg width="276" height="265" viewBox="0 0 276 265" fill="none" xmlns="http://www.w3.org/2000/svg">
<path fill-rule="evenodd" clip-rule="evenodd" d="M105.926 145.857C106.968 145.953 107.819 145.768 107.818 145.448C107.818 145.127 108.098 145.145 108.441 145.488C108.784 145.832 109.065 145.89 109.065 145.619C109.064 145.347 110.44 144.269 112.123 143.222C115.064 141.394 117.825 138.631 121.742 133.597C122.752 132.299 124.537 130.095 125.71 128.702C126.882 127.308 128.59 125.237 129.505 124.1C134.111 118.38 138.065 114.675 139.909 114.353C140.935 114.175 141.967 113.836 142.202 113.6C142.437 113.365 144.311 112.775 146.366 112.289C149.313 111.592 150.125 111.151 150.212 110.201C150.381 108.347 149.884 108.227 146.414 109.286C144.645 109.826 143.091 110.162 142.962 110.033C142.624 109.695 146.676 105.888 150.659 102.802C152.538 101.346 154.639 99.6678 155.328 99.0737C157.988 96.7786 158.169 96.7397 157.644 98.5782C157.359 99.5712 156.868 100.444 156.551 100.518C156.234 100.593 156.184 100.862 156.439 101.118C156.694 101.373 156.576 102.199 156.176 102.954C155.215 104.769 154.587 111.118 155.177 113.055C156.149 116.25 163.812 122.895 164.27 120.942C164.353 120.586 164.75 120.625 165.151 121.026C165.782 121.657 166.622 121.221 168.067 119.51C168.593 118.888 166.38 117.484 164.871 117.481C164.101 117.48 163.195 117.258 162.858 116.987C158.83 113.752 158.4 112.81 158.47 107.384C158.546 101.504 164.227 91.1462 168.402 89.2772C169.971 88.5752 171.162 86.9169 170.543 86.298C169.941 85.696 166.154 87.0469 164.906 88.3083C164.218 89.0039 162.971 89.5719 162.136 89.5704C161.3 89.5689 160.037 90.1126 159.329 90.7782C157.086 92.8847 153.961 95.3224 152.944 95.7571C149.35 97.2948 134.827 111.826 127.061 121.656C126.382 122.516 124.496 124.829 122.87 126.796C121.245 128.762 119.285 131.366 118.515 132.583C116.902 135.13 116.751 134.31 118.224 131.012C119.386 128.409 119.448 126.612 118.462 124.062C117.863 122.513 117.451 122.214 115.617 121.991C114.438 121.849 113.292 121.912 113.071 122.133C112.403 122.801 113.904 125.051 115.093 125.163C116.257 125.274 116.362 126.557 115.464 129.69C114.948 131.491 111.568 136.077 108.155 139.604C105.709 142.132 105.591 142.174 104.297 140.972C103.563 140.289 103.141 139.553 103.36 139.335C103.578 139.116 103.499 138.669 103.184 138.34C102.869 138.011 102.912 136.48 103.28 134.937C104.048 131.719 106.487 124.874 106.767 125.154C106.87 125.257 107.855 123.409 108.956 121.049C110.056 118.688 111.421 116.293 111.987 115.726C112.553 115.16 113.311 114.026 113.67 113.207C114.293 111.786 119.194 104.795 121.859 101.526C130.27 91.2099 146.888 73.433 149.404 72.0621C150.035 71.7188 151.84 70.4172 153.415 69.1698C156.975 66.3497 161.182 64.8897 165.452 64.9902C175.744 65.233 184.343 64.9219 186.69 64.2223C187.935 63.8515 188.608 63.2751 188.952 62.2859C189.221 61.5116 190.135 59.9074 190.983 58.7205C192.782 56.2034 193.887 53.1214 194.009 50.285C194.057 49.1779 194.238 48.4142 194.412 48.5879C194.585 48.7615 194.747 48.1468 194.771 47.2211C194.795 46.2963 194.865 44.7916 194.927 43.8786C194.989 42.9655 194.89 40.8096 194.708 39.0876C194.526 37.3657 194.359 35.3096 194.338 34.5189C194.316 33.7276 194.197 32.9414 194.073 32.7711C193.948 32.6012 193.553 31.7603 193.195 30.9021C192.546 29.3447 192.553 29.342 196.497 29.3881C198.671 29.4134 200.714 29.6993 201.038 30.0233C201.362 30.3467 201.858 30.5215 202.14 30.4112C202.709 30.1879 212.046 33.5709 212.734 34.2488C212.972 34.4838 214.132 34.9761 215.311 35.3422C216.489 35.7083 217.963 36.3413 218.585 36.749C219.923 37.6248 221.462 38.6117 223.435 39.8578C228.575 43.1044 236.472 49.5277 243.231 55.9592C247.635 60.1491 248.36 61.0644 247.962 61.9278C247.703 62.4886 247.196 64.2267 246.835 65.7902C246.475 67.3537 246.066 68.5199 245.928 68.3813C245.789 68.2427 245.377 69.0701 245.013 70.2196C244.649 71.3695 243.766 72.9008 243.051 73.6215C240.824 75.8645 236.676 84.3214 237.431 85.0766C237.626 85.2713 237.365 85.8504 236.852 86.3635C236.339 86.8767 236.091 87.4679 236.3 87.6771C236.51 87.8869 236.241 89.0692 235.704 90.3043C235.166 91.5399 234.971 92.6084 235.268 92.679C235.565 92.7496 235.456 93.6612 235.025 94.7054C234.595 95.7491 234.23 97.8977 234.215 99.481C234.199 101.064 234.03 102.201 233.837 102.009C233.645 101.817 233.524 103.71 233.568 106.218C233.611 108.725 233.33 111.905 232.94 113.285C232.552 114.665 232.293 116.291 232.366 116.899C232.439 117.505 232.257 118.164 231.961 118.362C231.666 118.56 231.272 118.99 231.087 119.318C230.901 119.646 230.182 120.605 229.487 121.451C226.58 124.988 224.809 126.623 222.783 127.641C220.498 128.789 212.651 128.787 209.726 127.638C206.741 126.466 205.063 126.878 202.885 129.317C201.789 130.545 200.576 131.475 200.19 131.383C199.805 131.291 199.067 131.639 198.551 132.155C198.035 132.671 196.991 133.093 196.231 133.092C195.472 133.09 194.198 133.203 193.403 133.342C192.607 133.48 190.911 132.851 189.634 131.941C187.452 130.388 187.315 130.081 187.357 126.855C187.407 122.988 188.882 118.639 191.309 115.21C192.365 113.717 192.7 112.654 192.255 112.209C190.507 110.461 185.925 117.6 184.686 124.001C183.837 128.387 184.41 131.758 186.26 133.271C186.95 133.835 187.977 134.707 188.543 135.207C190.066 136.554 196.448 136.838 199.751 135.706C202.264 134.846 205.149 132.745 206.312 130.931C207.167 129.598 207.971 129.451 209.741 130.308C211.932 131.37 212.955 131.514 218.411 131.537C224.25 131.562 228.304 129.237 232.157 123.654C233.309 121.984 234.33 120.276 234.426 119.858C234.521 119.441 234.849 118.76 235.154 118.347C235.458 117.933 235.661 117.296 235.604 116.931C235.548 116.567 235.816 115.323 236.199 114.167C236.583 113.012 236.964 111.579 237.045 110.983C237.317 108.989 237.195 102.43 236.853 100.642C236.666 99.6689 236.777 98.6111 237.097 98.2906C237.417 97.9706 237.678 96.5994 237.675 95.2442C237.673 93.8889 237.861 92.9635 238.093 93.1882C238.325 93.412 238.458 93.2309 238.389 92.7845C238.235 91.7897 240.255 85.7694 240.99 85.0342C241.283 84.7417 241.289 84.2693 241.004 83.9842C240.719 83.6991 240.903 83.2807 241.413 83.0544C241.924 82.8277 242.231 82.4011 242.098 82.106C241.964 81.8114 242.927 80.219 244.236 78.5688C245.545 76.9177 247.175 74.3966 247.858 72.9659C248.993 70.5864 249.222 70.3816 250.541 70.5643C251.334 70.6746 252.229 70.9968 252.529 71.281C253.343 72.0497 256.899 71.1709 256.681 70.255C256.581 69.8366 256.789 69.4266 257.143 69.3436C257.497 69.261 257.636 67.9813 257.453 66.5C257.212 64.5559 256.865 63.8632 256.203 64.0097C255.576 64.1484 255.45 64.0449 255.805 63.68C257.128 62.3201 243.278 49.0919 231.614 40.574C231.018 40.1398 230.5 39.8146 230.463 39.8519C230.426 39.8892 229.475 39.1982 228.351 38.3158C227.227 37.4339 225.709 36.5297 224.977 36.3069C224.244 36.0841 223.784 35.7636 223.952 35.5952C224.121 35.4264 223.779 35.2421 223.192 35.185C222.605 35.1279 221.135 34.386 219.926 33.5357C218.716 32.6854 216.633 31.69 215.297 31.3232C213.961 30.9563 212.655 30.4441 212.397 30.1853C211.626 29.4152 204.176 26.9612 202.312 26.8631C201.363 26.8138 200.346 26.5316 200.051 26.2366C199.165 25.3509 194.367 25.9108 189.333 27.4871L184.597 28.97L184.8 30.871C184.921 32.0017 185.5 33.0551 186.231 33.4709C191.174 36.284 191.455 36.7443 191.461 42.0326C191.47 50.5782 190.357 54.8915 187.089 58.9763C186.045 60.2811 181.454 61.7549 180.72 61.0209C180.5 60.8009 179.007 60.987 177.402 61.4347C175.797 61.8819 174.312 62.0765 174.102 61.8663C173.891 61.6561 173.405 61.7992 173.02 62.1841C172.635 62.5689 172.036 62.6001 171.689 62.2532C170.966 61.5299 166.035 61.3652 162.037 61.9311C160.537 62.1435 158.639 62.3098 157.819 62.3013C156.502 62.2873 151.49 65.0367 146.623 68.4429C143.828 70.3993 131.738 83.066 126.12 89.9254C121.655 95.3759 119.915 96.9997 118.389 97.1391C116.639 97.2986 105.016 101.956 101.747 103.807C99.3567 105.161 94.6984 108.947 93.769 110.29C93.2445 111.048 92.6064 111.965 92.3514 112.326C91.5053 113.524 91.7057 116.42 92.7403 117.942C94.2415 120.149 97.3696 121.167 101.28 120.72C104.914 120.305 106.084 120.694 104.864 121.913C103.782 122.995 100.588 132.213 100.558 134.34C100.544 135.352 100.385 136.452 100.204 136.785C100.023 137.117 100.117 137.526 100.413 137.693C100.709 137.861 100.749 138.2 100.503 138.446C100.131 138.818 102.822 144.606 103.752 145.433C103.906 145.57 104.885 145.761 105.926 145.857ZM115.688 135.708C116.377 135.243 115.996 135.806 114.842 136.961C113.687 138.115 113.124 138.496 113.589 137.807C114.055 137.119 115 136.174 115.688 135.708ZM95.1031 114.752C95.0243 113.779 95.6702 112.799 97.3622 111.322C99.5585 109.406 101.518 107.963 102.335 107.66C102.522 107.591 102.926 107.364 103.232 107.157C104.063 106.594 107.481 105.126 113.001 102.961C115.419 102.013 115.625 102.046 115.266 103.323C115.05 104.095 114.392 105.314 113.806 106.031C111.993 108.246 110.124 110.999 109.099 112.963C106.5 117.946 105.985 118.774 105.68 118.474C105.498 118.296 103.172 118.057 100.51 117.944C95.7546 117.741 95.3238 117.487 95.1031 114.752ZM173.825 129.729C174.073 129.481 174.448 129.662 174.658 130.132C175.097 131.112 179.775 131.509 182.066 130.76C183.323 130.349 183.544 130.023 183.256 129.007C182.981 128.036 182.061 127.703 179.126 127.511C174.753 127.225 173.123 125.822 172.516 121.822C171.75 116.76 174.636 108.828 179.358 103.023C181.547 100.333 181.913 99.534 181.256 98.8776C180.689 98.3107 180.045 98.4432 179.127 99.3146C175.701 102.569 170.13 112.175 169.987 115.075C169.94 116.023 169.664 117.036 169.374 117.326C168.649 118.051 168.975 122.183 169.99 125.134C170.91 127.808 173.11 130.444 173.825 129.729ZM187.94 78.9149C189.12 79.3978 190.129 79.8482 190.181 79.9156C190.374 80.1636 194.169 81.8457 196.171 82.5707C200.142 84.0091 200.591 84.2613 204.774 87.4171C206.785 88.9343 209.982 90.1578 211.637 90.0438C211.913 90.0252 213.44 90.3283 215.028 90.7185C217.131 91.2344 218.876 92.2843 221.441 94.575C225.279 98.003 226.941 98.3382 226.567 95.6093C226.139 92.4802 219.061 86.3655 217.58 87.8457C217.301 88.1251 217.072 88.0985 217.071 87.7868C217.07 87.2237 216.426 87.0894 212.625 86.8612C210.485 86.7327 210.202 86.6041 206.413 84.0328C203.244 81.8831 193.983 77.7969 191.958 77.655C191.116 77.5956 190.59 77.3844 190.789 77.1852C190.989 76.9855 190.632 76.7732 189.997 76.7127C189.361 76.6527 187.675 75.7057 186.249 74.6083C183.684 72.634 181.936 71.994 181.177 72.753C180.556 73.3739 185.574 77.9462 187.94 78.9149Z" fill="#2A9134"/>
<rect x="1" y="247" width="50" height="17" fill="#E38D68" stroke="black" stroke-width="2"/>
<rect x="53" y="247" width="50" height="17" fill="#E38D68" stroke="black" stroke-width="2"/>
<rect x="105" y="247" width="50" height="17" fill="#E38D68" stroke="black" stroke-width="2"/>
<rect x="27" y="228" width="50" height="17" fill="#E38D68" stroke="black" stroke-width="2"/>
<rect x="79" y="228" width="50" height="17" fill="#E38D68" stroke="black" stroke-width="2"/>
<rect x="131" y="228" width="50" height="17" fill="#E38D68" stroke="black" stroke-width="2"/>
<rect x="1" y="209" width="50" height="17" fill="#E38D68" stroke="black" stroke-width="2"/>
<rect x="53" y="209" width="50" height="17" fill="#E38D68" stroke="black" stroke-width="2"/>
<rect x="105" y="209" width="50" height="17" fill="#E38D68" stroke="black" stroke-width="2"/>
<rect x="27" y="190" width="50" height="17" fill="#E38D68" stroke="black" stroke-width="2"/>
<rect x="79" y="190" width="50" height="17" fill="#E38D68" stroke="black" stroke-width="2"/>
<rect x="53" y="171" width="50" height="17" fill="#E38D68" stroke="black" stroke-width="2"/>
<g filter="url(#filter0_d_17_164)">
<circle cx="78" cy="131" r="23" fill="#A3DD44"/>
</g>
<g filter="url(#filter1_i_17_164)">
<circle cx="78.5" cy="131.5" r="17.5" fill="#60910F"/>
</g>
<g filter="url(#filter2_d_17_164)">
<path d="M77.2314 141.384C76.058 141.384 74.874 141.181 73.6794 140.776C72.4847 140.349 71.4074 139.656 70.4474 138.696L72.8794 135.304C73.7114 135.965 74.4794 136.413 75.1834 136.648C75.8874 136.861 76.57 136.968 77.2314 136.968C78.042 136.968 78.618 136.829 78.9594 136.552C79.3007 136.253 79.4714 135.816 79.4714 135.24C79.4714 134.792 79.2687 134.408 78.8634 134.088C78.4794 133.747 77.9674 133.416 77.3274 133.096C76.7087 132.776 76.0474 132.435 75.3434 132.072C74.6394 131.709 73.9674 131.293 73.3274 130.824C72.7087 130.333 72.1967 129.757 71.7914 129.096C71.4074 128.413 71.2154 127.603 71.2154 126.664C71.2154 125.363 71.4927 124.243 72.0474 123.304C72.6234 122.344 73.434 121.608 74.4794 121.096C75.5247 120.584 76.762 120.328 78.1914 120.328C79.5994 120.328 80.8154 120.595 81.8394 121.128C82.8847 121.64 83.802 122.333 84.5914 123.208L81.8394 126.216C81.306 125.725 80.7514 125.363 80.1754 125.128C79.5994 124.872 79.002 124.744 78.3834 124.744C77.7647 124.744 77.2847 124.872 76.9434 125.128C76.6234 125.363 76.4634 125.789 76.4634 126.408C76.4634 126.813 76.6554 127.176 77.0394 127.496C77.4447 127.795 77.9567 128.093 78.5754 128.392C79.2154 128.669 79.8874 128.989 80.5914 129.352C81.2954 129.693 81.9567 130.099 82.5754 130.568C83.2154 131.037 83.7274 131.613 84.1114 132.296C84.5167 132.979 84.7194 133.811 84.7194 134.792C84.7194 136.051 84.442 137.181 83.8874 138.184C83.354 139.165 82.5327 139.944 81.4234 140.52C80.314 141.096 78.9167 141.384 77.2314 141.384ZM76.1434 144.52V139.08H79.7274V144.52H76.1434ZM76.1434 121.992V117.192H79.7274V121.992H76.1434Z" fill="#A3DD44"/>
</g>
<defs>
<filter id="filter0_d_17_164" x="51" y="108" width="54" height="54" filterUnits="userSpaceOnUse" color-interpolation-filters="sRGB">
<feFlood flood-opacity="0" result="BackgroundImageFix"/>
<feColorMatrix in="SourceAlpha" type="matrix" values="0 0 0 0 0 0 0 0 0 0 0 0 0 0 0 0 0 0 127 0" result="hardAlpha"/>
<feOffset dy="4"/>
<feGaussianBlur stdDeviation="2"/>
<feComposite in2="hardAlpha" operator="out"/>
<feColorMatrix type="matrix" values="0 0 0 0 0 0 0 0 0 0 0 0 0 0 0 0 0 0 0.25 0"/>
<feBlend mode="normal" in2="BackgroundImageFix" result="effect1_dropShadow_17_164"/>
<feBlend mode="normal" in="SourceGraphic" in2="effect1_dropShadow_17_164" result="shape"/>
</filter>
<filter id="filter1_i_17_164" x="61" y="114" width="37" height="37" filterUnits="userSpaceOnUse" color-interpolation-filters="sRGB">
<feFlood flood-opacity="0" result="BackgroundImageFix"/>
<feBlend mode="normal" in="SourceGraphic" in2="BackgroundImageFix" result="shape"/>
<feColorMatrix in="SourceAlpha" type="matrix" values="0 0 0 0 0 0 0 0 0 0 0 0 0 0 0 0 0 0 127 0" result="hardAlpha"/>
<feOffset dx="2" dy="2"/>
<feGaussianBlur stdDeviation="2"/>
<feComposite in2="hardAlpha" operator="arithmetic" k2="-1" k3="1"/>
<feColorMatrix type="matrix" values="0 0 0 0 0 0 0 0 0 0 0 0 0 0 0 0 0 0 0.34 0"/>
<feBlend mode="normal" in2="shape" result="effect1_innerShadow_17_164"/>
</filter>
<filter id="filter2_d_17_164" x="66.4473" y="117.192" width="22.272" height="35.328" filterUnits="userSpaceOnUse" color-interpolation-filters="sRGB">
<feFlood flood-opacity="0" result="BackgroundImageFix"/>
<feColorMatrix in="SourceAlpha" type="matrix" values="0 0 0 0 0 0 0 0 0 0 0 0 0 0 0 0 0 0 127 0" result="hardAlpha"/>
<feOffset dy="4"/>
<feGaussianBlur stdDeviation="2"/>
<feComposite in2="hardAlpha" operator="out"/>
<feColorMatrix type="matrix" values="0 0 0 0 0 0 0 0 0 0 0 0 0 0 0 0 0 0 0.25 0"/>
<feBlend mode="normal" in2="BackgroundImageFix" result="effect1_dropShadow_17_164"/>
<feBlend mode="normal" in="SourceGraphic" in2="effect1_dropShadow_17_164" result="shape"/>
</filter>
</defs>
</svg>
