<svg width="65" height="65" viewBox="0 0 65 65" fill="none" xmlns="http://www.w3.org/2000/svg">
<rect x="4.0625" y="4.0625" width="56.875" height="56.875" rx="6" fill="url(#paint0_radial_14_153)"/>
<rect x="4.0625" y="4.0625" width="56.875" height="56.875" rx="6" fill="url(#paint1_radial_14_153)"/>
<rect x="4.0625" y="4.0625" width="56.875" height="56.875" rx="6" fill="url(#paint2_radial_14_153)"/>
<path d="M46.7188 21.3281C46.7188 23.0109 45.3546 24.375 43.6719 24.375C41.9891 24.375 40.625 23.0109 40.625 21.3281C40.625 19.6454 41.9891 18.2812 43.6719 18.2812C45.3546 18.2812 46.7188 19.6454 46.7188 21.3281Z" fill="white"/>
<path fill-rule="evenodd" clip-rule="evenodd" d="M32.5 42.6562C38.1091 42.6562 42.6562 38.1091 42.6562 32.5C42.6562 26.8909 38.1091 22.3438 32.5 22.3438C26.8909 22.3438 22.3438 26.8909 22.3438 32.5C22.3438 38.1091 26.8909 42.6562 32.5 42.6562ZM32.5 38.5938C35.8655 38.5938 38.5938 35.8655 38.5938 32.5C38.5938 29.1345 35.8655 26.4062 32.5 26.4062C29.1345 26.4062 26.4062 29.1345 26.4062 32.5C26.4062 35.8655 29.1345 38.5938 32.5 38.5938Z" fill="white"/>
<path fill-rule="evenodd" clip-rule="evenodd" d="M12.1875 31.6875C12.1875 24.8619 12.1875 21.449 13.5159 18.842C14.6843 16.5488 16.5488 14.6843 18.842 13.5159C21.449 12.1875 24.8619 12.1875 31.6875 12.1875H33.3125C40.1381 12.1875 43.551 12.1875 46.158 13.5159C48.4512 14.6843 50.3157 16.5488 51.4841 18.842C52.8125 21.449 52.8125 24.8619 52.8125 31.6875V33.3125C52.8125 40.1381 52.8125 43.551 51.4841 46.158C50.3157 48.4512 48.4512 50.3157 46.158 51.4841C43.551 52.8125 40.1381 52.8125 33.3125 52.8125H31.6875C24.8619 52.8125 21.449 52.8125 18.842 51.4841C16.5488 50.3157 14.6843 48.4512 13.5159 46.158C12.1875 43.551 12.1875 40.1381 12.1875 33.3125V31.6875ZM31.6875 16.25H33.3125C36.7924 16.25 39.1579 16.2532 40.9864 16.4026C42.7675 16.5481 43.6783 16.8118 44.3137 17.1356C45.8425 17.9145 47.0855 19.1575 47.8644 20.6863C48.1882 21.3217 48.4519 22.2325 48.5974 24.0136C48.7468 25.8421 48.75 28.2076 48.75 31.6875V33.3125C48.75 36.7924 48.7468 39.1579 48.5974 40.9864C48.4519 42.7675 48.1882 43.6783 47.8644 44.3137C47.0855 45.8425 45.8425 47.0855 44.3137 47.8644C43.6783 48.1882 42.7675 48.4519 40.9864 48.5974C39.1579 48.7468 36.7924 48.75 33.3125 48.75H31.6875C28.2076 48.75 25.8421 48.7468 24.0136 48.5974C22.2325 48.4519 21.3217 48.1882 20.6863 47.8644C19.1575 47.0855 17.9145 45.8425 17.1356 44.3137C16.8118 43.6783 16.5481 42.7675 16.4026 40.9864C16.2532 39.1579 16.25 36.7924 16.25 33.3125V31.6875C16.25 28.2076 16.2532 25.8421 16.4026 24.0136C16.5481 22.2325 16.8118 21.3217 17.1356 20.6863C17.9145 19.1575 19.1575 17.9145 20.6863 17.1356C21.3217 16.8118 22.2325 16.5481 24.0136 16.4026C25.8421 16.2532 28.2076 16.25 31.6875 16.25Z" fill="white"/>
<defs>
<radialGradient id="paint0_radial_14_153" cx="0" cy="0" r="1" gradientUnits="userSpaceOnUse" gradientTransform="translate(24.375 46.7188) rotate(-55.3758) scale(51.8367)">
<stop stop-color="#B13589"/>
<stop offset="0.79309" stop-color="#C62F94"/>
<stop offset="1" stop-color="#8A3AC8"/>
</radialGradient>
<radialGradient id="paint1_radial_14_153" cx="0" cy="0" r="1" gradientUnits="userSpaceOnUse" gradientTransform="translate(22.3437 62.9687) rotate(-65.1363) scale(45.8946)">
<stop stop-color="#E0E8B7"/>
<stop offset="0.444662" stop-color="#FB8A2E"/>
<stop offset="0.71474" stop-color="#E2425C"/>
<stop offset="1" stop-color="#E2425C" stop-opacity="0"/>
</radialGradient>
<radialGradient id="paint2_radial_14_153" cx="0" cy="0" r="1" gradientUnits="userSpaceOnUse" gradientTransform="translate(1.01563 6.09375) rotate(-8.1301) scale(78.9971 16.8967)">
<stop offset="0.156701" stop-color="#406ADC"/>
<stop offset="0.467799" stop-color="#6A45BE"/>
<stop offset="1" stop-color="#6A45BE" stop-opacity="0"/>
</radialGradient>
</defs>
</svg>
