<svg width="43" height="40" viewBox="0 0 43 40" fill="none" xmlns="http://www.w3.org/2000/svg">
<path d="M15.5553 37.8571C10.9339 37.8571 6.62596 36.513 3 34.1937C6.07856 34.3929 11.5115 33.9159 14.8908 30.6926C9.80725 30.4593 7.51466 26.5604 7.21563 24.8942C7.64756 25.0609 9.70757 25.2608 10.8705 24.7943C5.02271 23.328 4.12561 18.1962 4.32497 16.63C5.42142 17.3964 7.28208 17.663 8.01305 17.5963C2.56399 13.6975 4.52432 7.83251 5.48788 6.56621C9.39832 11.9838 15.2589 15.0265 22.5091 15.1958C22.3724 14.5962 22.3002 13.972 22.3002 13.3309C22.3002 8.72988 26.0192 5 30.6067 5C33.0036 5 35.1634 6.01822 36.6796 7.64691C38.2813 7.27158 40.6919 6.39295 41.8703 5.63315C41.2763 7.76587 39.427 9.54499 38.3084 10.2044C38.3177 10.2268 38.2993 10.1819 38.3084 10.2044C39.291 10.0558 41.9497 9.54481 43 8.83222C42.4806 10.0304 40.52 12.0225 38.911 13.1377C39.2104 26.3401 29.1093 37.8571 15.5553 37.8571Z" fill="#47ACDF"/>
</svg>
